D:\school\WTK\thesis\model\3dpredictsim\Results\Batchsim_tmt_linear_v2\Pog_s1_tmt_bCst_d05_k1000_ig24_pas_GRF.mot
nRows=25
nColumns=19

name D:\school\WTK\thesis\model\3dpredictsim\Results\Batchsim_tmt_linear_v2\Pog_s1_tmt_bCst_d05_k1000_ig24_pas_GRF.mot
datacolumns 19
datarows 25
range 0.5373050978 0.7952115448
endheader
time 	ground_force_vx	ground_force_vy	ground_force_vz	ground_force_px	ground_force_py	ground_force_pz	1_ground_force_vx	1_ground_force_vy	1_ground_force_vz	1_ground_force_px	1_ground_force_py	1_ground_force_pz	ground_torque_x	ground_torque_y	ground_torque_z	1_ground_torque_x	1_ground_torque_y	1_ground_torque_z
        0.5373050978	      115.5802206011	      484.3248031436	       -2.7675320130	        0.3212866238	        0.0000000000	        0.0483760649	      -81.2478440286	       61.2448027695	      -15.9684819137	        0.8298664669	        0.0000000000	       -0.0454800926	        0.0000000000	        0.0000000000	        0.0000000000	        0.0000000000	        0.0000000000	        0.0000000000	
        0.5480511998	       83.7041272722	      389.7628563860	        2.8390145789	        0.3340700410	        0.0000000000	        0.0466206112	     -140.0838568267	      139.2168836487	      -40.9864788953	        0.8382503795	        0.0000000000	       -0.0440210249	        0.0000000000	        0.0000000000	        0.0000000000	        0.0000000000	        0.0000000000	        0.0000000000	
        0.5587973017	       47.4371257719	      285.5925064314	        5.8215394689	        0.3547116125	        0.0000000000	        0.0433949851	      -59.3335018695	      286.0309938630	      -17.8045801782	        0.8449875403	        0.0000000000	       -0.0426818144	        0.0000000000	        0.0000000000	        0.0000000000	        0.0000000000	        0.0000000000	        0.0000000000	
        0.5695434037	       17.4120080090	      196.6262480945	        6.3656351690	        0.3839265664	        0.0000000000	        0.0378212945	      -56.7502980687	      462.2580239454	        0.1065946788	        0.8496483937	        0.0000000000	       -0.0432409828	        0.0000000000	        0.0000000000	        0.0000000000	        0.0000000000	        0.0000000000	        0.0000000000	
        0.5802895056	        0.4507143964	      148.2535012645	       11.0504967020	        0.4038670403	        0.0000000000	        0.0323980144	      -94.7749660423	      693.2670742115	       10.3960522530	        0.8595068238	        0.0000000000	       -0.0462251222	        0.0000000000	        0.0000000000	        0.0000000000	        0.0000000000	        0.0000000000	        0.0000000000	
        0.5910356076	       -1.3997030469	      120.6680194388	       13.3336279329	        0.4037191889	        0.0000000000	        0.0328130593	     -122.4836582295	      858.4428892499	       15.8825452299	        0.8666990713	        0.0000000000	       -0.0483435237	        0.0000000000	        0.0000000000	        0.0000000000	        0.0000000000	        0.0000000000	        0.0000000000	
        0.6017817096	       -2.9927141495	       85.9706957786	       14.4648196644	        0.4042966972	        0.0000000000	        0.0330288842	     -127.3032750076	      913.6458316418	       17.7556551268	        0.8716497939	        0.0000000000	       -0.0496650650	        0.0000000000	        0.0000000000	        0.0000000000	        0.0000000000	        0.0000000000	        0.0000000000	
        0.6125278115	       -6.6560527323	       47.9713378888	       12.2212542868	        0.4045877534	        0.0000000000	        0.0331787288	     -119.4809949530	      892.1274171860	       17.0388792491	        0.8755246003	        0.0000000000	       -0.0505859808	        0.0000000000	        0.0000000000	        0.0000000000	        0.0000000000	        0.0000000000	        0.0000000000	
        0.6232739135	       -6.8300540343	       10.0759221822	        2.9383711458	        0.4031211647	        0.0000000000	        0.0325412107	     -107.8440118689	      849.8045695224	       16.1614396829	        0.8791849863	        0.0000000000	       -0.0512658258	        0.0000000000	        0.0000000000	        0.0000000000	        0.0000000000	        0.0000000000	        0.0000000000	
        0.6340200154	        0.0036656386	       -0.0033354912	       -0.0001604275	        0.0000000000	        0.0000000000	        0.0000000000	      -96.1983361523	      816.2520797084	       15.9262459620	        0.8834049081	        0.0000000000	       -0.0519852781	        0.0000000000	        0.0000000000	        0.0000000000	        0.0000000000	        0.0000000000	        0.0000000000	
        0.6447661174	        0.0001851262	       -0.0001433665	        0.0000005159	        0.0000000000	        0.0000000000	        0.0000000000	      -89.1628526940	      795.8999955413	       16.8028875973	        0.8892075268	        0.0000000000	       -0.0524829707	        0.0000000000	        0.0000000000	        0.0000000000	        0.0000000000	        0.0000000000	        0.0000000000	
        0.6555122193	        0.0001880376	       -0.0001279083	        0.0000040578	        0.0000000000	        0.0000000000	        0.0000000000	      -81.2173020118	      768.1732440416	       16.7892960114	        0.8953605711	        0.0000000000	       -0.0526488506	        0.0000000000	        0.0000000000	        0.0000000000	        0.0000000000	        0.0000000000	        0.0000000000	
        0.6662583213	        0.0031776654	       -0.0019561488	        0.0000948531	        0.0000000000	        0.0000000000	        0.0000000000	      -73.0437852505	      731.8916464184	       16.6108301262	        0.9013659444	        0.0000000000	       -0.0527293124	        0.0000000000	        0.0000000000	        0.0000000000	        0.0000000000	        0.0000000000	        0.0000000000	
        0.6770044233	       -0.0249124009	        0.0141481027	       -0.0008634543	        0.0000000000	        0.0000000000	        0.0000000000	      -65.2644115544	      697.6214767217	       16.3627869725	        0.9073132296	        0.0000000000	       -0.0527045817	        0.0000000000	        0.0000000000	        0.0000000000	        0.0000000000	        0.0000000000	        0.0000000000	
        0.6877505252	       -0.0418852114	        0.0222436438	       -0.0015970587	        0.0000000000	        0.0000000000	        0.0000000000	      -57.7990860326	      669.5440510921	       16.5666824183	        0.9130378313	        0.0000000000	       -0.0526736543	        0.0000000000	        0.0000000000	        0.0000000000	        0.0000000000	        0.0000000000	        0.0000000000	
        0.6984966272	       -0.0281890043	        0.0141408882	       -0.0011501758	        0.0000000000	        0.0000000000	        0.0000000000	      -50.9246151572	      647.4938932905	       17.0448180661	        0.9184359891	        0.0000000000	       -0.0526335027	        0.0000000000	        0.0000000000	        0.0000000000	        0.0000000000	        0.0000000000	        0.0000000000	
        0.7092427291	       -0.0214506707	        0.0102438815	       -0.0009176391	        0.0000000000	        0.0000000000	        0.0000000000	      -44.6781224924	      630.5774499863	       17.3843951462	        0.9235031785	        0.0000000000	       -0.0525767061	        0.0000000000	        0.0000000000	        0.0000000000	        0.0000000000	        0.0000000000	        0.0000000000	
        0.7199888311	       -0.0208254208	        0.0095230311	       -0.0009220514	        0.0000000000	        0.0000000000	        0.0000000000	      -39.2883559864	      618.0704613247	       17.8270101944	        0.9282689467	        0.0000000000	       -0.0524952525	        0.0000000000	        0.0000000000	        0.0000000000	        0.0000000000	        0.0000000000	        0.0000000000	
        0.7307349330	       -0.0258628019	        0.0113835191	       -0.0011765629	        0.0000000000	        0.0000000000	        0.0000000000	      -35.1571851792	      609.6111210165	       18.4719943922	        0.9327504846	        0.0000000000	       -0.0523835809	        0.0000000000	        0.0000000000	        0.0000000000	        0.0000000000	        0.0000000000	        0.0000000000	
        0.7414810350	       -0.0392765340	        0.0167213424	       -0.0018329619	        0.0000000000	        0.0000000000	        0.0000000000	      -31.6479777869	      603.5256840217	       19.3389529334	        0.9369100952	        0.0000000000	       -0.0522404240	        0.0000000000	        0.0000000000	        0.0000000000	        0.0000000000	        0.0000000000	        0.0000000000	
        0.7522271369	       -0.0684437968	        0.0283040716	       -0.0032674743	        0.0000000000	        0.0000000000	        0.0000000000	      -28.2957938230	      597.8770924498	       19.9617552599	        0.9407308767	        0.0000000000	       -0.0520865456	        0.0000000000	        0.0000000000	        0.0000000000	        0.0000000000	        0.0000000000	        0.0000000000	
        0.7629732389	       -0.1280246789	        0.0516239124	       -0.0062149123	        0.0000000000	        0.0000000000	        0.0000000000	      -25.0110526255	      592.2181446365	       20.3225806453	        0.9442296575	        0.0000000000	       -0.0519359251	        0.0000000000	        0.0000000000	        0.0000000000	        0.0000000000	        0.0000000000	        0.0000000000	
        0.7737193409	       -0.2413226521	        0.0952316518	       -0.0118569697	        0.0000000000	        0.0000000000	        0.0000000000	      -21.7361994834	      585.7313896444	       20.5647338002	        0.9474077267	        0.0000000000	       -0.0517893256	        0.0000000000	        0.0000000000	        0.0000000000	        0.0000000000	        0.0000000000	        0.0000000000	
        0.7844654428	       -0.4370387185	        0.1693004488	       -0.0216831842	        0.0000000000	        0.0000000000	        0.0000000000	      -18.2582023334	      578.3918680553	       20.6128167599	        0.9503030019	        0.0000000000	       -0.0516514882	        0.0000000000	        0.0000000000	        0.0000000000	        0.0000000000	        0.0000000000	        0.0000000000	
        0.7952115448	       -0.7448215919	        0.2838773376	       -0.0371952496	        0.0000000000	        0.0000000000	        0.0000000000	      -14.6742601748	      570.3599007721	       20.5362828791	        0.9529217727	        0.0000000000	       -0.0515166927	        0.0000000000	        0.0000000000	        0.0000000000	        0.0000000000	        0.0000000000	        0.0000000000	
